# Blender 3.6.1
# www.blender.org
mtllib obj_structure prototype.mtl
o Cube
v 10.000000 6.000000 -5.000000
v 10.000000 6.000000 5.000000
v -10.000000 6.000000 -5.000000
v -10.000000 6.000000 5.000000
v 10.000000 0.000000 -5.000000
v -10.000000 0.000000 5.000000
v 10.000000 0.000000 5.000000
v -10.000000 0.000000 -5.000000
v 10.000000 6.000000 0.000000
v -10.000000 6.000000 0.000000
v 10.000000 0.000000 0.000000
v -10.000000 0.000000 0.000000
v -10.000000 6.000000 -4.000000
v -10.000000 0.000000 -4.000000
v 10.000000 6.000000 -4.000000
v 10.000000 0.000000 -4.000000
v 10.000000 6.000000 4.000000
v 10.000000 0.000000 4.000000
v -10.000000 6.000000 4.000000
v -10.000000 0.000000 4.000000
vn -0.0000 -0.0000 1.0000
vn -1.0000 -0.0000 -0.0000
vn 1.0000 -0.0000 -0.0000
vn -0.0000 -0.0000 -1.0000
vt 0.990164 0.215838
vt 0.348275 0.215838
vt 0.348275 0.023271
vt 0.990164 0.023271
vt 0.347347 0.216031
vt 0.315188 0.216031
vt 0.315188 0.023079
vt 0.347347 0.023079
vt 0.186553 0.216031
vt 0.057919 0.216031
vt 0.057919 0.023079
vt 0.186553 0.023079
vt 0.347347 0.216031
vt 0.315188 0.216031
vt 0.315188 0.023079
vt 0.347347 0.023079
vt 0.186553 0.216031
vt 0.186553 0.023079
vt 0.990164 0.215838
vt 0.348275 0.215838
vt 0.990164 0.023271
vt 0.057919 0.216031
vt 0.025760 0.216031
vt 0.025760 0.023079
vt 0.057919 0.023079
vt 0.025760 0.216031
vt 0.025760 0.023079
s 0
usemtl Material
f 2/1/1 4/2/1 6/3/1 7/4/1
f 4/5/2 19/6/2 20/7/2 6/8/2
f 10/9/2 13/10/2 14/11/2 12/12/2
f 1/13/3 15/14/3 16/15/3 5/16/3
f 19/6/2 10/9/2 12/12/2 20/7/2
f 15/14/3 9/17/3 11/18/3 16/15/3
f 3/19/4 1/20/4 5/3/4 8/21/4
f 17/22/3 2/23/3 7/24/3 18/25/3
f 13/10/2 3/26/2 8/27/2 14/11/2
f 9/17/3 17/22/3 18/25/3 11/18/3
o Cube.001
v -10.000000 11.000000 5.000000
v -10.000000 11.000000 -5.000000
v 10.000000 11.000000 5.000000
v 10.000000 11.000000 -5.000000
v -10.000000 11.000000 0.000000
v 10.000000 11.000000 0.000000
v -10.000000 11.500000 5.000000
v -10.000000 11.600000 -5.000000
v 10.000000 11.500000 5.000000
v 10.000000 11.600000 -5.000000
v -10.000000 17.000000 0.000000
v 10.000000 17.000000 0.000000
v -10.000000 11.000000 -4.000000
v 10.000000 11.000000 -4.000000
v -10.000000 12.200000 -4.000000
v 10.000000 12.200000 -4.000000
v 10.000000 11.000000 4.000000
v -10.000000 11.000000 4.000000
v 10.000000 12.200000 4.000000
v -10.000000 12.200000 4.000000
v -10.000000 11.000000 5.300000
v 10.000000 11.000000 5.300000
v -10.000000 11.500000 5.500000
v 10.000000 11.500000 5.500000
v -10.000000 11.000000 -5.300000
v 10.000000 11.000000 -5.300000
v -10.000000 11.600000 -5.500000
v 10.000000 11.600000 -5.500000
v -1.000000 11.500000 4.980000
v -1.000000 13.000004 4.980000
v -1.000000 11.500000 1.300000
v -1.000000 13.000004 1.300000
v 1.000000 11.500000 4.980000
v 1.000000 13.000004 4.980000
v 1.000000 11.500000 1.300000
v 1.000000 13.000004 1.300000
v -0.050000 14.900001 4.380000
v -0.050000 14.900001 1.300000
v 0.050000 14.900001 4.380000
v 0.050000 14.900001 1.300000
v -1.100000 13.000004 5.080000
v -1.100000 13.000004 1.206786
v 1.100000 13.000004 1.206786
v 1.100000 13.000004 5.080000
v -1.100000 13.199997 5.080000
v -1.100000 13.199997 1.206786
v 1.100000 13.199997 5.080000
v 1.100000 13.199997 1.206786
v 5.000000 11.500000 4.980000
v 5.000000 13.000004 4.980000
v 5.000000 11.500000 1.300000
v 5.000000 13.000004 1.300000
v 7.000000 11.500000 4.980000
v 7.000000 13.000004 4.980000
v 7.000000 11.500000 1.300000
v 7.000000 13.000004 1.300000
v 5.950000 14.900001 4.380000
v 5.950000 14.900001 1.300000
v 6.050000 14.900001 4.380000
v 6.050000 14.900001 1.300000
v 4.900000 13.000004 5.080000
v 4.900000 13.000004 1.206786
v 7.100000 13.000004 1.206786
v 7.100000 13.000004 5.080000
v 4.900000 13.199997 5.080000
v 4.900000 13.199997 1.206786
v 7.100000 13.199997 5.080000
v 7.100000 13.199997 1.206786
v -7.000000 11.500000 4.980000
v -7.000000 13.000004 4.980000
v -7.000000 11.500000 1.300000
v -7.000000 13.000004 1.300000
v -5.000000 11.500000 4.980000
v -5.000000 13.000004 4.980000
v -5.000000 11.500000 1.300000
v -5.000000 13.000004 1.300000
v -6.050000 14.900001 4.380000
v -6.050000 14.900001 1.300000
v -5.950000 14.900001 4.380000
v -5.950000 14.900001 1.300000
v -7.100000 13.000004 5.080000
v -7.100000 13.000004 1.206786
v -4.900000 13.000004 1.206786
v -4.900000 13.000004 5.080000
v -7.100000 13.199997 5.080000
v -7.100000 13.199997 1.206786
v -4.900000 13.199997 5.080000
v -4.900000 13.199997 1.206786
v -1.000000 11.500000 -4.980000
v -1.000000 13.000004 -4.980000
v -1.000000 11.500000 -1.300000
v -1.000000 13.000004 -1.300000
v 1.000000 11.500000 -4.980000
v 1.000000 13.000004 -4.980000
v 1.000000 11.500000 -1.300000
v 1.000000 13.000004 -1.300000
v -0.050000 14.900001 -4.380000
v -0.050000 14.900001 -1.300000
v 0.050000 14.900001 -4.380000
v 0.050000 14.900001 -1.300000
v -1.100000 13.000004 -5.080000
v -1.100000 13.000004 -1.206786
v 1.100000 13.000004 -1.206786
v 1.100000 13.000004 -5.080000
v -1.100000 13.199997 -5.080000
v -1.100000 13.199997 -1.206786
v 1.100000 13.199997 -5.080000
v 1.100000 13.199997 -1.206786
v 5.000000 11.500000 -4.980000
v 5.000000 13.000004 -4.980000
v 5.000000 11.500000 -1.300000
v 5.000000 13.000004 -1.300000
v 7.000000 11.500000 -4.980000
v 7.000000 13.000004 -4.980000
v 7.000000 11.500000 -1.300000
v 7.000000 13.000004 -1.300000
v 5.950000 14.900001 -4.380000
v 5.950000 14.900001 -1.300000
v 6.050000 14.900001 -4.380000
v 6.050000 14.900001 -1.300000
v 4.900000 13.000004 -5.080000
v 4.900000 13.000004 -1.206786
v 7.100000 13.000004 -1.206786
v 7.100000 13.000004 -5.080000
v 4.900000 13.199997 -5.080000
v 4.900000 13.199997 -1.206786
v 7.100000 13.199997 -5.080000
v 7.100000 13.199997 -1.206786
v -7.000000 11.500000 -4.980000
v -7.000000 13.000004 -4.980000
v -7.000000 11.500000 -1.300000
v -7.000000 13.000004 -1.300000
v -5.000000 11.500000 -4.980000
v -5.000000 13.000004 -4.980000
v -5.000000 11.500000 -1.300000
v -5.000000 13.000004 -1.300000
v -6.050000 14.900001 -4.380000
v -6.050000 14.900001 -1.300000
v -5.950000 14.900001 -4.380000
v -5.950000 14.900001 -1.300000
v -7.100000 13.000004 -5.080000
v -7.100000 13.000004 -1.206786
v -4.900000 13.000004 -1.206786
v -4.900000 13.000004 -5.080000
v -7.100000 13.199997 -5.080000
v -7.100000 13.199997 -1.206786
v -4.900000 13.199997 -5.080000
v -4.900000 13.199997 -1.206786
vn -1.0000 -0.0000 -0.0000
vn 1.0000 -0.0000 -0.0000
vn -0.0000 0.8192 0.5735
vn -0.0000 0.6402 -0.7682
vn -0.0000 -1.0000 -0.0000
vn -0.0000 0.8575 -0.5145
vn -0.0000 0.6402 0.7682
vn -0.0000 -0.3714 0.9285
vn -0.0000 1.0000 -0.0000
vn -0.0000 -0.3162 -0.9487
vn 0.8508 0.5255 -0.0000
vn -0.0000 -0.0000 1.0000
vn -0.8508 0.5255 -0.0000
vn -0.0000 0.3807 0.9247
vn -0.0000 -0.0000 -1.0000
vn -0.0000 0.3807 -0.9247
vt 0.058945 0.669209
vt 0.187500 0.669209
vt 0.187500 0.862041
vt 0.058945 0.707775
vt 0.026806 0.669209
vt 0.026798 0.686885
vt 0.010729 0.686885
vt 0.017164 0.669209
vt 0.990218 0.463119
vt 0.348221 0.463119
vt 0.348221 0.424810
vt 0.990218 0.424810
vt 0.990218 0.663685
vt 0.348221 0.663685
vt 0.316055 0.669209
vt 0.348194 0.669209
vt 0.348202 0.686885
vt 0.316055 0.707775
vt 0.348221 0.380336
vt 0.990218 0.380336
vt 0.990218 0.389966
vt 0.348221 0.389966
vt 0.348221 0.389966
vt 0.990218 0.389966
vt 0.990218 0.408760
vt 0.348221 0.408760
vt 0.348221 0.380336
vt 0.990218 0.380336
vt 0.357836 0.669209
vt 0.364271 0.686885
vt 0.154373 0.508491
vt 0.154018 0.550454
vt 0.049908 0.549583
vt 0.049908 0.507620
vt 0.237399 0.615454
vt 0.218290 0.559391
vt 0.325126 0.560308
vt 0.325126 0.616183
vt 0.325126 0.509931
vt 0.325126 0.551893
vt 0.221158 0.551022
vt 0.221513 0.509060
vt 0.218337 0.553796
vt 0.325126 0.554713
vt 0.215918 0.509012
vt 0.215563 0.550975
vt 0.159613 0.550501
vt 0.159968 0.508539
vt 0.049908 0.552359
vt 0.156792 0.553275
vt 0.156744 0.558870
vt 0.049908 0.557953
vt 0.049908 0.613873
vt 0.136689 0.614602
vt 0.136665 0.617400
vt 0.049908 0.616670
vt 0.185683 0.610550
vt 0.188481 0.610574
vt 0.154339 0.508471
vt 0.153984 0.550434
vt 0.049874 0.549563
vt 0.049874 0.507600
vt 0.237365 0.615434
vt 0.218255 0.559371
vt 0.325092 0.560288
vt 0.325092 0.616163
vt 0.325092 0.509911
vt 0.325092 0.551873
vt 0.221124 0.551002
vt 0.221479 0.509040
vt 0.218303 0.553776
vt 0.325092 0.554693
vt 0.215884 0.508992
vt 0.215529 0.550955
vt 0.159579 0.550481
vt 0.159934 0.508519
vt 0.049874 0.552338
vt 0.156758 0.553255
vt 0.156710 0.558850
vt 0.049874 0.557933
vt 0.049874 0.613853
vt 0.136655 0.614582
vt 0.136631 0.617380
vt 0.049874 0.616650
vt 0.185649 0.610530
vt 0.188446 0.610554
vt 0.049874 0.549563
vt 0.159934 0.508519
vt 0.159579 0.550481
vt 0.325092 0.554693
vt 0.136631 0.617380
vt 0.221158 0.551022
vt 0.156744 0.558870
vt 0.049908 0.507621
vt 0.154373 0.508491
vt 0.154018 0.550454
vt 0.156792 0.553275
vt 0.159968 0.508539
vt 0.215563 0.550975
vt 0.159613 0.550502
vt 0.325126 0.560308
vt 0.218289 0.559391
vt 0.218337 0.553796
vt 0.136665 0.617400
vt 0.049908 0.616671
vt 0.185683 0.610550
s 0
usemtl Material
f 33/28/5 25/29/5 31/30/5 35/31/5
f 23/32/6 29/33/6 44/34/6 42/35/6
f 39/36/7 40/37/7 27/38/7 29/39/7
f 36/37/8 35/36/8 31/40/8 32/41/8
f 38/42/5 21/43/5 27/44/5 40/45/5
f 37/28/6 26/29/6 32/30/6 39/31/6
f 34/42/6 24/43/6 30/44/6 36/45/6
f 24/46/9 22/47/9 45/48/9 46/49/9
f 26/29/6 34/42/6 36/45/6 32/30/6
f 30/38/10 28/39/10 35/36/10 36/37/10
f 22/32/5 33/28/5 35/31/5 28/33/5
f 23/32/6 37/28/6 39/31/6 29/33/6
f 25/29/5 38/42/5 40/45/5 31/30/5
f 32/40/11 31/41/11 40/37/11 39/36/11
f 41/50/12 42/51/12 44/52/12 43/53/12
f 21/54/9 23/55/9 42/51/9 41/50/9
f 27/44/5 21/43/5 41/56/5 43/57/5
f 29/39/13 27/38/13 43/53/13 44/52/13
f 46/49/14 45/48/14 47/52/14 48/53/14
f 28/39/13 30/38/13 48/53/13 47/52/13
f 30/44/6 24/43/6 46/56/6 48/57/6
f 22/32/5 28/33/5 47/34/5 45/35/5
f 49/58/5 50/59/5 52/60/5 51/61/5
f 59/62/15 67/63/15 68/64/15 60/65/15
f 55/66/6 56/67/6 54/68/6 53/69/6
f 64/70/6 63/71/6 68/64/6 67/63/6
f 53/72/16 54/73/16 50/74/16 49/75/16
f 62/76/5 61/77/5 65/78/5 66/79/5
f 52/60/9 50/59/9 61/77/9 62/76/9
f 58/80/17 66/79/17 65/78/17 57/81/17
f 61/77/16 64/70/16 67/63/16 65/78/16
f 57/81/13 59/82/13 60/83/13 58/80/13
f 54/68/9 56/67/9 63/71/9 64/70/9
f 50/74/9 54/73/9 64/70/9 61/77/9
f 57/84/18 65/78/18 67/63/18 59/85/18
f 69/86/5 70/87/5 72/88/5 71/89/5
f 79/90/15 87/91/15 88/92/15 80/93/15
f 75/94/6 76/95/6 74/96/6 73/97/6
f 84/98/6 83/99/6 88/92/6 87/91/6
f 73/100/16 74/101/16 70/102/16 69/103/16
f 82/104/5 81/105/5 85/106/5 86/107/5
f 72/88/9 70/87/9 81/105/9 82/104/9
f 78/108/17 86/107/17 85/106/17 77/109/17
f 81/105/16 84/98/16 87/91/16 85/106/16
f 77/109/13 79/110/13 80/111/13 78/108/13
f 74/96/9 76/95/9 83/99/9 84/98/9
f 70/102/9 74/101/9 84/98/9 81/105/9
f 77/112/18 85/106/18 87/91/18 79/113/18
f 89/86/5 90/87/5 92/88/5 91/89/5
f 99/90/15 107/91/15 108/92/15 100/93/15
f 95/94/6 96/95/6 94/96/6 93/97/6
f 104/98/6 103/99/6 108/92/6 107/91/6
f 93/100/16 94/101/16 90/102/16 89/103/16
f 102/104/5 101/105/5 105/106/5 106/107/5
f 92/88/9 90/87/9 101/105/9 102/104/9
f 98/108/17 106/107/17 105/106/17 97/109/17
f 101/105/16 104/98/16 107/91/16 105/106/16
f 97/109/13 99/110/13 100/111/13 98/108/13
f 94/96/9 96/95/9 103/99/9 104/98/9
f 90/102/9 94/101/9 104/98/9 101/105/9
f 97/112/18 105/106/18 107/91/18 99/113/18
f 109/97/5 111/94/5 112/95/5 110/96/5
f 119/109/15 120/108/15 128/107/15 127/106/15
f 115/89/6 113/86/6 114/87/6 116/114/6
f 124/105/6 127/106/6 128/107/6 123/104/6
f 113/115/19 109/100/19 110/101/19 114/116/19
f 122/117/5 126/92/5 125/91/5 121/98/5
f 112/95/9 122/117/9 121/98/9 110/96/9
f 118/93/17 117/90/17 125/91/17 126/92/17
f 121/98/19 125/91/19 127/106/19 124/105/19
f 117/118/13 118/111/13 120/108/13 119/109/13
f 114/87/9 124/105/9 123/104/9 116/114/9
f 110/101/9 121/98/9 124/105/9 114/116/9
f 117/113/20 119/112/20 127/106/20 125/91/20
f 129/69/5 131/66/5 132/67/5 130/119/5
f 139/81/15 140/80/15 148/79/15 147/120/15
f 135/121/6 133/122/6 134/123/6 136/60/6
f 144/124/6 147/120/6 148/79/6 143/76/6
f 133/125/19 129/72/19 130/126/19 134/127/19
f 142/71/5 146/128/5 145/129/5 141/130/5
f 132/67/9 142/71/9 141/130/9 130/119/9
f 138/65/17 137/62/17 145/129/17 146/128/17
f 141/130/19 145/129/19 147/120/19 144/124/19
f 137/131/13 138/132/13 140/80/13 139/81/13
f 134/123/9 144/124/9 143/76/9 136/60/9
f 130/126/9 141/130/9 144/124/9 134/127/9
f 137/85/20 139/133/20 147/120/20 145/129/20
f 149/69/5 151/66/5 152/67/5 150/119/5
f 159/81/15 160/80/15 168/79/15 167/120/15
f 155/121/6 153/122/6 154/123/6 156/60/6
f 164/124/6 167/120/6 168/79/6 163/76/6
f 153/125/19 149/72/19 150/126/19 154/127/19
f 162/71/5 166/128/5 165/129/5 161/130/5
f 152/67/9 162/71/9 161/130/9 150/119/9
f 158/65/17 157/62/17 165/129/17 166/128/17
f 161/130/19 165/129/19 167/120/19 164/124/19
f 157/131/13 158/132/13 160/80/13 159/81/13
f 154/123/9 164/124/9 163/76/9 156/60/9
f 150/126/9 161/130/9 164/124/9 154/127/9
f 157/85/20 159/133/20 167/120/20 165/129/20
o Cube.002
v 10.000000 6.000000 -5.000000
v -10.000000 11.000000 5.000000
v 10.000000 6.000000 5.000000
v -10.000000 11.000000 -5.000000
v -10.000000 6.000000 -5.000000
v 10.000000 11.000000 5.000000
v -10.000000 6.000000 5.000000
v 10.000000 11.000000 -5.000000
v -10.000000 11.000000 0.000000
v 10.000000 11.000000 0.000000
v 10.000000 6.000000 0.000000
v -10.000000 6.000000 0.000000
v -10.000000 11.000000 -4.000000
v -10.000000 6.000000 -4.000000
v 10.000000 11.000000 -4.000000
v 10.000000 6.000000 -4.000000
v 10.000000 11.000000 4.000000
v 10.000000 6.000000 4.000000
v -10.000000 11.000000 4.000000
v -10.000000 6.000000 4.000000
vn -0.0000 -0.0000 -1.0000
vn 1.0000 -0.0000 -0.0000
vn -1.0000 -0.0000 -0.0000
vn -0.0000 -0.0000 1.0000
vt 0.990164 0.218474
vt 0.990164 0.378946
vt 0.348275 0.378946
vt 0.348275 0.218474
vt 0.347299 0.379265
vt 0.315140 0.379265
vt 0.315140 0.218472
vt 0.347299 0.218472
vt 0.347394 0.218472
vt 0.347394 0.379265
vt 0.315236 0.379265
vt 0.315236 0.218472
vt 0.186601 0.379265
vt 0.057966 0.379265
vt 0.057966 0.218472
vt 0.186601 0.218472
vt 0.186506 0.379265
vt 0.057871 0.379265
vt 0.057871 0.218472
vt 0.186506 0.218472
vt 0.025808 0.379265
vt 0.025808 0.218472
vt 0.025712 0.379265
vt 0.025712 0.218472
vt 0.348275 0.378946
vt 0.348275 0.218474
vt 0.990164 0.218473
vt 0.990164 0.378946
s 0
usemtl Material
f 173/134/21 172/135/21 176/136/21 169/137/21
f 176/138/22 183/139/22 184/140/22 169/141/22
f 175/142/23 170/143/23 187/144/23 188/145/23
f 177/146/23 181/147/23 182/148/23 180/149/23
f 178/150/22 185/151/22 186/152/22 179/153/22
f 181/147/23 172/154/23 173/155/23 182/148/23
f 183/139/22 178/150/22 179/153/22 184/140/22
f 185/151/22 174/156/22 171/157/22 186/152/22
f 187/144/23 177/146/23 180/149/23 188/145/23
f 170/158/24 175/159/24 171/160/24 174/161/24
o Plane
v -1.000000 0.000000 1.000000
v 1.000000 0.000000 1.000000
v -1.000000 0.000000 -1.000000
v 1.000000 0.000000 -1.000000
vn -0.0000 1.0000 -0.0000
vt 0.000000 0.000000
vt 1.000000 0.000000
vt 1.000000 1.000000
vt 0.000000 1.000000
s 0
f 189/162/25 190/163/25 192/164/25 191/165/25
