# Blender 3.6.4
# www.blender.org
mtllib D10.mtl
o Icosphere.001
v 0.000000 -0.180000 0.000000
v 0.180900 -0.020000 0.131430
v -0.069096 -0.020000 0.212660
v -0.223606 -0.020000 0.000000
v -0.069096 -0.020000 -0.212660
v 0.180900 -0.020000 -0.131430
v 0.069096 0.020000 0.212660
v -0.180900 0.020000 0.131430
v -0.180900 0.020000 -0.131430
v 0.069096 0.020000 -0.212660
v 0.223606 0.020000 0.000000
v 0.000000 0.200000 0.000000
vn 0.2157 -0.7453 0.6308
vn -0.5453 -0.7453 -0.3836
vn 0.6666 -0.7453 -0.0102
vn 0.5738 0.7128 -0.4034
vn 0.5609 0.7128 0.4211
vn 0.1963 -0.7453 -0.6372
vn -0.7013 0.7128 -0.0109
vn -0.2063 0.7128 -0.6704
vn -0.5333 -0.7453 0.4001
vn -0.2271 0.7128 0.6636
vn 0.6666 -0.7453 0.0102
vn 0.1963 -0.7453 0.6372
vn -0.5453 -0.7453 0.3836
vn -0.5333 -0.7453 -0.4001
vn 0.2157 -0.7453 -0.6308
vn 0.5609 0.7128 -0.4211
vn -0.2271 0.7128 -0.6636
vn -0.7013 0.7128 0.0109
vn -0.2063 0.7128 0.6704
vn 0.5738 0.7128 0.4034
vt 0.709223 0.709779
vt 0.600230 0.657963
vt 0.715527 0.458202
vt 0.161850 0.293053
vt 0.272111 0.342120
vt 0.161860 0.544709
vt 0.602887 0.293054
vt 0.713142 0.342131
vt 0.602874 0.544712
vt 0.492630 0.078982
vt 0.492627 0.342120
vt 0.713166 0.078993
vt 0.823406 0.293072
vt 0.382367 0.293050
vt 0.382369 0.544706
vt 0.373182 0.915490
vt 0.268328 0.698722
vt 0.379782 0.652433
vt 0.272105 0.078982
vt 0.488774 0.704253
vt 0.495088 0.452676
vt 0.593634 0.921018
vt 0.820677 0.663485
vt 0.051594 0.342127
s 0
usemtl Material.002
f 7/1/1 3/2/1 1/3/1
f 9/4/2 5/5/2 1/6/2
f 11/7/3 2/8/3 1/9/3
f 12/10/4 11/7/4 6/11/4
f 12/12/5 7/13/5 2/8/5
f 10/14/6 6/11/6 1/15/6
f 12/16/7 9/17/7 4/18/7
f 12/19/8 10/14/8 5/5/8
f 8/20/9 4/18/9 1/21/9
f 12/22/10 8/20/10 3/2/10
f 6/11/11 11/7/11 1/9/11
f 2/23/12 7/1/12 1/3/12
f 3/2/13 8/20/13 1/21/13
f 4/24/14 9/4/14 1/6/14
f 5/5/15 10/14/15 1/15/15
f 10/14/16 12/10/16 6/11/16
f 9/4/17 12/19/17 5/5/17
f 8/20/18 12/16/18 4/18/18
f 7/1/19 12/22/19 3/2/19
f 11/7/20 12/12/20 2/8/20
