# Blender 3.6.4
# www.blender.org
mtllib D20 001.mtl
o Icosphere
v 0.000000 -0.250000 0.000000
v 0.180900 -0.111804 0.131430
v -0.069096 -0.111804 0.212660
v -0.223606 -0.111804 0.000000
v -0.069096 -0.111804 -0.212660
v 0.180900 -0.111804 -0.131430
v 0.069096 0.111804 0.212660
v -0.180900 0.111804 0.131430
v -0.180900 0.111804 -0.131430
v 0.069096 0.111804 -0.212660
v 0.223606 0.111804 0.000000
v 0.000000 0.250000 0.000000
vn 0.1876 -0.7947 0.5774
vn 0.6071 -0.7947 -0.0000
vn -0.4911 -0.7947 0.3568
vn -0.4911 -0.7947 -0.3568
vn 0.1876 -0.7947 -0.5774
vn 0.9822 -0.1876 -0.0000
vn 0.3035 -0.1876 0.9342
vn -0.7946 -0.1876 0.5774
vn -0.7946 -0.1876 -0.5774
vn 0.3035 -0.1876 -0.9342
vn 0.7946 0.1876 0.5774
vn -0.3035 0.1876 0.9342
vn -0.9822 0.1876 -0.0000
vn -0.3035 0.1876 -0.9342
vn 0.7946 0.1876 -0.5774
vn 0.4911 0.7947 0.3568
vn -0.1876 0.7947 0.5774
vn -0.6071 0.7947 -0.0000
vn -0.1876 0.7947 -0.5774
vn 0.4911 0.7947 -0.3568
vt 0.995403 0.671395
vt 0.797488 0.785660
vt 0.797489 0.557129
vt 0.400426 0.328608
vt 0.598341 0.442872
vt 0.400426 0.557137
vt 0.995404 0.442866
vt 0.797490 0.328597
vt 0.995404 0.214328
vt 0.797490 0.100065
vt 0.598341 0.671401
vt 0.400427 0.785667
vt 0.202510 0.442872
vt 0.599573 0.671392
vt 0.599574 0.442861
vt 0.599574 0.214333
vt 0.202511 0.671405
vt 0.202510 0.214340
vt 0.202511 0.899935
vt 0.004596 0.328604
vt 0.401659 0.557126
vt 0.401659 0.328597
vt 0.004597 0.785671
vt 0.004596 0.557141
s 0
f 1/1/1 2/2/1 3/3/1
f 2/4/2 1/5/2 6/6/2
f 1/7/3 3/3/3 4/8/3
f 1/9/4 4/8/4 5/10/4
f 1/11/5 5/12/5 6/6/5
f 2/4/6 6/6/6 11/13/6
f 3/3/7 2/2/7 7/14/7
f 4/8/8 3/3/8 8/15/8
f 5/10/9 4/8/9 9/16/9
f 6/6/10 5/12/10 10/17/10
f 2/4/11 11/13/11 7/18/11
f 3/3/12 7/14/12 8/15/12
f 4/8/13 8/15/13 9/16/13
f 5/12/14 9/19/14 10/17/14
f 6/6/15 10/17/15 11/13/15
f 7/18/16 11/13/16 12/20/16
f 8/15/17 7/14/17 12/21/17
f 9/16/18 8/15/18 12/22/18
f 10/17/19 9/19/19 12/23/19
f 11/13/20 10/17/20 12/24/20
