# Blender 3.6.3
# www.blender.org
mtllib Mud Board 72x48.mtl
o 48"_x_72"
v -24.000000 0.000000 36.000000
v -24.000000 0.000000 -36.000000
v 24.000000 0.000000 36.000000
v 24.000000 0.000000 -36.000000
v -24.000000 -0.500000 36.000000
v -24.000000 -0.500000 -36.000000
v 24.000000 -0.500000 -36.000000
v 24.000000 -0.500000 36.000000
vn -1.0000 -0.0000 -0.0000
vn -0.0000 -0.0000 -1.0000
vn 1.0000 -0.0000 -0.0000
vn -0.0000 -0.0000 1.0000
vn -0.0000 1.0000 -0.0000
vt 0.742965 0.999970
vt 0.736021 0.999970
vt 0.736021 0.000030
vt 0.742965 0.000030
vt 0.761688 0.833313
vt 0.754744 0.833313
vt 0.754744 0.166687
vt 0.761688 0.166687
vt 0.743026 0.000030
vt 0.749970 0.000030
vt 0.749970 0.999970
vt 0.743026 0.999970
vt 0.761749 0.166687
vt 0.768693 0.166687
vt 0.768693 0.833313
vt 0.761749 0.833313
vt 0.666819 0.999985
vt 0.000173 0.999985
vt 0.000173 0.000015
vt 0.666819 0.000015
s 0
usemtl Mud_Terrain_72x48
f 5/1/1 1/2/1 2/3/1 6/4/1
f 6/5/2 2/6/2 4/7/2 7/8/2
f 7/9/3 4/10/3 3/11/3 8/12/3
f 8/13/4 3/14/4 1/15/4 5/16/4
f 4/17/5 2/18/5 1/19/5 3/20/5
