# Blender 3.6.3
# www.blender.org
mtllib obj_terrain hill.mtl
o Cube.003
v -3.000000 4.000000 3.000000
v -3.000000 4.500000 -3.000000
v 3.000000 4.000000 3.000000
v 3.000000 4.000000 -3.000000
v 9.000000 4.000000 3.000000
v 9.000000 4.000000 -3.000000
v 15.000000 3.000000 3.000000
v 15.000000 3.000000 -3.000000
v -9.000000 4.000000 3.000000
v -9.000000 4.000000 -3.000000
v -15.000000 3.000000 3.000000
v -15.000000 3.000000 -3.000000
v -24.000000 0.000000 3.000000
v -20.000000 2.000000 3.000000
v -25.000000 0.000000 -3.000000
v -21.000000 2.000000 -3.000000
v 25.000000 0.000000 3.000000
v 22.000000 2.000000 3.000000
v 23.000000 0.000000 -3.000000
v 20.000000 2.000000 -3.000000
v -3.000000 4.000000 -9.000000
v 3.000000 4.000000 -9.000000
v 9.000000 3.000000 -9.000000
v 15.000000 2.000000 -9.000000
v -9.000000 4.000000 -9.000000
v -15.000000 3.000000 -9.000000
v -25.000000 0.000000 -9.000000
v -21.000000 2.000000 -9.000000
v 23.000000 0.000000 -9.000000
v 20.000000 2.000000 -9.000000
v -3.000000 3.000000 -15.000000
v 3.000000 3.000000 -15.000000
v 9.000000 0.000000 -19.000000
v 9.000000 2.000000 -15.000000
v 15.000000 0.000000 -19.000000
v 15.000000 2.000000 -15.000000
v -9.000000 3.000000 -15.000000
v -18.000000 0.000000 -17.000000
v -15.000000 2.000000 -15.000000
v -3.000000 0.000000 -25.000000
v -3.000000 2.000000 -21.000000
v 3.000000 0.000000 -25.000000
v 3.000000 2.000000 -21.000000
v -9.000000 0.000000 -24.000000
v -9.000000 2.000000 -20.000000
v -3.000000 3.000000 9.000002
v 3.000000 3.000000 9.000002
v 9.000000 3.000000 9.000002
v 15.000000 3.000000 9.000002
v -9.000000 3.000000 9.000002
v -17.000000 0.000000 11.000000
v -15.000000 2.000000 9.000002
v 25.000000 0.000000 10.000002
v 22.000000 2.000000 9.000002
v -3.000000 0.000000 20.000000
v -3.000000 2.000000 16.000000
v 3.000000 0.000000 19.000000
v 3.000000 2.000000 15.000000
v 9.000000 0.000000 18.000000
v 9.000000 2.000000 14.000000
v 15.000000 0.000000 19.000000
v 15.000000 2.000000 15.000000
v -9.000000 0.000000 19.000000
v -9.000000 2.000000 15.000000
v -12.000000 1.600000 13.000001
v -14.000000 0.000000 15.000000
v -18.000000 1.600000 7.000001
v -21.000000 0.000000 8.000000
v 18.000000 1.600000 13.000001
v 20.000000 0.000000 16.000000
v 19.000000 1.600000 -13.000000
v 21.000000 0.000000 -15.000000
v 6.000000 0.000000 -23.000000
v 6.000000 1.600000 -19.000000
v -12.000000 1.600000 -19.000000
v -15.000000 0.000000 -21.000000
v -19.000000 1.600000 -12.000000
v -22.000000 0.000000 -14.000000
vn -0.3193 0.9474 0.0240
vn -0.1680 0.9858 0.0037
vn -0.1714 0.9812 -0.0889
vn -0.3150 0.9408 -0.1251
vn 0.0416 0.9989 -0.0207
vn 0.0104 0.9956 0.0929
vn 0.0620 0.9961 0.0620
vn 0.1026 0.9928 -0.0611
vn 0.3794 0.9232 -0.0607
vn 0.1384 0.9903 0.0139
vn 0.0966 0.9884 0.1171
vn 0.3443 0.9284 0.1398
vn 0.1482 0.9866 -0.0686
vn -0.0000 1.0000 -0.0000
vn -0.0000 0.9947 0.1032
vn -0.1032 0.9947 -0.0000
vn -0.0000 0.9947 -0.1032
vn -0.0922 0.9915 -0.0922
vn -0.0922 0.9915 0.0922
vn -0.0921 0.9814 0.1683
vn -0.0000 0.9874 0.1582
vn -0.1799 0.9797 0.0887
vn -0.3223 0.9365 0.1382
vn 0.1234 0.9847 -0.1234
vn 0.0715 0.9910 -0.1129
vn -0.4341 0.8883 0.1498
vn -0.4469 0.8939 0.0354
vn -0.4219 0.8993 -0.1155
vn 0.5520 0.8280 -0.0984
vn 0.3327 0.9406 -0.0680
vn 0.5528 0.8292 -0.0828
vn 0.2914 0.9321 -0.2150
vn 0.3338 0.9387 -0.0863
vn 0.5426 0.8355 -0.0866
vn 0.3997 0.8590 -0.3200
vn 0.3487 0.8547 -0.3846
vn 0.3133 0.9014 -0.2989
vn 0.1413 0.9589 -0.2460
vn 0.2696 0.8712 -0.4103
vn 0.0995 0.9907 -0.0931
vn 0.1237 0.9515 -0.2815
vn 0.1162 0.8899 -0.4411
vn -0.0037 0.9858 -0.1680
vn -0.0877 0.9800 -0.1786
vn 0.0889 0.9812 -0.1714
vn -0.0240 0.9474 -0.3193
vn -0.0354 0.8939 -0.4469
vn -0.1351 0.8901 -0.4353
vn -0.1228 0.9401 -0.3180
vn 0.1383 0.9371 -0.3206
vn 0.1288 0.8939 -0.4294
vn 0.0069 0.9863 0.1649
vn -0.0000 0.9481 0.3179
vn 0.0445 0.9501 0.3086
vn 0.0207 0.9882 0.1515
vn 0.4628 0.8690 0.1748
vn 0.0743 0.8920 0.4460
vn -0.0000 0.8944 0.4472
vn -0.0000 0.9531 0.3027
vn 0.0802 0.9031 0.4220
vn 0.0984 0.9395 0.3282
vn -0.1669 0.9352 0.3124
vn -0.1725 0.8851 0.4322
vn -0.2742 0.9229 0.2705
vn -0.2978 0.9071 0.2974
vn -0.3107 0.9060 0.2875
vn -0.2926 0.8911 -0.3468
vn -0.2333 0.9230 -0.3059
vn -0.3429 0.8871 -0.3090
vn -0.2747 0.9250 -0.2626
vn -0.2418 0.9388 -0.2453
vn -0.3186 0.8909 -0.3238
vn -0.3751 0.8482 0.3739
vn -0.3890 0.8619 0.3253
vn -0.3797 0.8407 0.3860
vn 0.2529 0.9225 0.2915
vn 0.3109 0.8784 0.3629
vt 0.945062 0.708991
vt 0.887775 0.718323
vt 0.878528 0.661933
vt 0.935385 0.652918
vt 0.718188 0.745782
vt 0.727330 0.802213
vt 0.670902 0.811185
vt 0.661793 0.754900
vt 0.547411 0.832517
vt 0.613828 0.820889
vt 0.623038 0.877356
vt 0.557632 0.887862
vt 0.604349 0.764113
vt 0.774559 0.736673
vt 0.783723 0.792983
vt 0.830767 0.727582
vt 0.765505 0.680357
vt 0.821666 0.671553
vt 0.839835 0.783651
vt 0.849894 0.840540
vt 0.793294 0.850243
vt 0.896859 0.774683
vt 0.944693 0.766912
vt 0.651380 0.697654
vt 0.709105 0.689329
vt 0.987453 0.761385
vt 0.987454 0.702212
vt 0.977572 0.644835
vt 0.520122 0.776715
vt 0.555403 0.771817
vt 0.512948 0.838475
vt 0.549759 0.675607
vt 0.547109 0.714650
vt 0.512546 0.718071
vt 0.524054 0.657583
vt 0.657044 0.554881
vt 0.664544 0.596160
vt 0.641090 0.639350
vt 0.631492 0.596465
vt 0.593913 0.706806
vt 0.584049 0.650706
vt 0.574357 0.608928
vt 0.756620 0.623055
vt 0.813161 0.614520
vt 0.699815 0.631768
vt 0.747945 0.565585
vt 0.741772 0.522981
vt 0.801015 0.523830
vt 0.805825 0.566668
vt 0.691510 0.574370
vt 0.684095 0.531982
vt 0.736584 0.859688
vt 0.804796 0.917000
vt 0.746155 0.917601
vt 0.679588 0.868695
vt 0.526365 0.904963
vt 0.752940 0.960753
vt 0.812490 0.959526
vt 0.693136 0.960915
vt 0.686999 0.917477
vt 0.635582 0.977019
vt 0.631135 0.934256
vt 0.859409 0.897586
vt 0.868498 0.939764
vt 0.907517 0.831884
vt 0.885752 0.875122
vt 0.933386 0.808391
vt 0.863212 0.543590
vt 0.836083 0.570505
vt 0.941577 0.600757
vt 0.913251 0.626503
vt 0.870397 0.604390
vt 0.899073 0.576652
vt 0.911095 0.894044
vt 0.967293 0.814642
vt 0.934961 0.851347
vt 0.599535 0.920712
vt 0.582823 0.955167
s 1
usemtl Material.001
f 16/1/1 12/2/2 26/3/3 28/4/4
f 4/5/5 3/6/6 5/7/7 6/8/8
f 18/9/9 7/10/10 49/11/11 54/12/12
f 6/8/8 5/7/7 7/10/10 8/13/13
f 4/5/5 2/14/14 1/15/15 3/6/6
f 10/16/16 2/14/14 21/17/17 25/18/18
f 1/15/15 9/19/19 50/20/20 46/21/21
f 9/19/19 10/16/16 12/2/2 11/22/22
f 1/15/15 2/14/14 10/16/16 9/19/19
f 11/22/22 12/2/2 16/1/1 14/23/23
f 12/2/2 10/16/16 25/18/18 26/3/3
f 4/5/5 6/8/8 23/24/24 22/25/25
f 13/26/26 14/23/23 16/1/1 15/27/27
f 15/27/27 16/1/1 28/4/4 27/28/28
f 19/29/29 20/30/30 18/9/9 17/31/31
f 8/13/13 7/10/10 18/9/9 20/30/30
f 71/32/32 30/33/33 29/34/34 72/35/35
f 73/36/36 74/37/37 34/38/38 33/39/39
f 8/13/13 20/30/30 30/33/33 24/40/40
f 20/30/30 19/29/29 29/34/34 30/33/33
f 2/14/14 4/5/5 22/25/25 21/17/17
f 33/39/39 34/38/38 36/41/41 35/42/42
f 23/24/24 24/40/40 36/41/41 34/38/38
f 25/18/18 21/17/17 31/43/43 37/44/44
f 21/17/17 22/25/25 32/45/45 31/43/43
f 41/46/46 40/47/47 44/48/48 45/49/49
f 40/47/47 41/46/46 43/50/50 42/51/51
f 37/44/44 31/43/43 41/46/46 45/49/49
f 31/43/43 32/45/45 43/50/50 41/46/46
f 47/52/52 46/21/21 56/53/53 58/54/54
f 3/6/6 1/15/15 46/21/21 47/52/52
f 5/7/7 3/6/6 47/52/52 48/55/55
f 7/10/10 5/7/7 48/55/55 49/11/11
f 17/31/31 18/9/9 54/12/12 53/56/56
f 57/57/57 58/54/54 56/53/53 55/58/58
f 58/54/54 57/57/57 59/59/58 60/60/59
f 60/60/59 59/59/58 61/61/60 62/62/61
f 55/58/58 56/53/53 64/63/62 63/64/63
f 46/21/21 50/20/20 64/63/62 56/53/53
f 49/11/11 48/55/55 60/60/59 62/62/61
f 48/55/55 47/52/52 58/54/54 60/60/59
f 50/20/20 52/65/64 65/66/65 64/63/62
f 11/22/22 14/23/23 67/67/66 52/65/64
f 36/41/41 24/40/40 30/33/33 71/32/32
f 43/50/50 32/45/45 34/38/38 74/37/37
f 76/68/67 75/69/68 45/49/49 44/48/48
f 78/70/69 77/71/70 39/72/71 38/73/72
f 37/44/44 45/49/49 75/69/68 39/72/71
f 39/72/71 77/71/70 28/4/4 26/3/3
f 65/66/65 66/74/73 63/64/63 64/63/62
f 67/67/66 68/75/74 51/76/75 52/65/64
f 49/11/11 62/62/61 69/77/76 54/12/12
f 70/78/77 69/77/76 62/62/61 61/61/60
f 6/8/8 8/13/13 24/40/40 23/24/24
f 32/45/45 22/25/25 23/24/24 34/38/38
f 39/72/71 26/3/3 25/18/18 37/44/44
f 50/20/20 9/19/19 11/22/22 52/65/64
f 52/65/64 51/76/75 66/74/73 65/66/65
f 14/23/23 13/26/26 68/75/74 67/67/66
f 53/56/56 54/12/12 69/77/76 70/78/77
f 36/41/41 71/32/32 72/35/35 35/42/42
f 42/51/51 43/50/50 74/37/37 73/36/36
f 38/73/72 39/72/71 75/69/68 76/68/67
f 27/28/28 28/4/4 77/71/70 78/70/69
